<mxfile host="app.diagrams.net" modified="2022-05-23T18:08:54.300Z" agent="5.0 (Windows NT 10.0; Win64; x64) AppleWebKit/537.36 (KHTML, like Gecko) Chrome/101.0.4951.67 Safari/537.36" etag="v3muomOo2Xo0Bj6rKlzl" version="18.1.1" type="github">
  <diagram id="wD1Af2SOxlMurQdNG7q2" name="Page-1">
    <mxGraphModel dx="1178" dy="607" grid="1" gridSize="10" guides="1" tooltips="1" connect="1" arrows="1" fold="1" page="1" pageScale="1" pageWidth="827" pageHeight="1169" math="0" shadow="0">
      <root>
        <mxCell id="0" />
        <mxCell id="1" parent="0" />
        <mxCell id="_pn34sJ178Xk1olBsKFP-5" style="edgeStyle=orthogonalEdgeStyle;rounded=0;orthogonalLoop=1;jettySize=auto;html=1;exitX=1;exitY=0.25;exitDx=0;exitDy=0;entryX=0.5;entryY=0;entryDx=0;entryDy=0;" edge="1" parent="1" source="_pn34sJ178Xk1olBsKFP-1" target="_pn34sJ178Xk1olBsKFP-2">
          <mxGeometry relative="1" as="geometry" />
        </mxCell>
        <mxCell id="_pn34sJ178Xk1olBsKFP-6" style="edgeStyle=orthogonalEdgeStyle;rounded=0;orthogonalLoop=1;jettySize=auto;html=1;exitX=0.5;exitY=1;exitDx=0;exitDy=0;entryX=0;entryY=0.75;entryDx=0;entryDy=0;" edge="1" parent="1" source="_pn34sJ178Xk1olBsKFP-1" target="_pn34sJ178Xk1olBsKFP-3">
          <mxGeometry relative="1" as="geometry" />
        </mxCell>
        <mxCell id="_pn34sJ178Xk1olBsKFP-1" value="&lt;span style=&quot;color: rgb(128, 0, 128); font-family: monospace; font-size: medium; font-weight: 700; text-align: left; background-color: rgb(255, 255, 255);&quot;&gt;HTML&lt;/span&gt;" style="rounded=1;whiteSpace=wrap;html=1;" vertex="1" parent="1">
          <mxGeometry x="40" y="30" width="40" height="20" as="geometry" />
        </mxCell>
        <mxCell id="_pn34sJ178Xk1olBsKFP-2" value="&lt;ul style=&quot;margin: 0px; padding: 0px 0px 0px 1em; font-family: monospace; font-size: medium; text-align: left; background-color: rgb(255, 255, 255);&quot;&gt;&lt;li style=&quot;padding: 0px; margin: 0px; list-style: none; position: relative;&quot; class=&quot;t1&quot;&gt;&lt;code style=&quot;color: purple; font-weight: bold;&quot;&gt;HEAD&lt;/code&gt;&lt;/li&gt;&lt;/ul&gt;" style="rounded=1;whiteSpace=wrap;html=1;" vertex="1" parent="1">
          <mxGeometry x="80" y="60" width="50" height="20" as="geometry" />
        </mxCell>
        <mxCell id="_pn34sJ178Xk1olBsKFP-7" style="edgeStyle=orthogonalEdgeStyle;rounded=0;orthogonalLoop=1;jettySize=auto;html=1;exitX=0;exitY=0.75;exitDx=0;exitDy=0;entryX=0;entryY=0.5;entryDx=0;entryDy=0;" edge="1" parent="1" source="_pn34sJ178Xk1olBsKFP-3" target="_pn34sJ178Xk1olBsKFP-4">
          <mxGeometry relative="1" as="geometry" />
        </mxCell>
        <mxCell id="_pn34sJ178Xk1olBsKFP-3" value="&lt;span style=&quot;color: rgb(128, 0, 128); font-family: monospace; font-size: medium; font-weight: 700; text-align: left; background-color: rgb(255, 255, 255);&quot;&gt;BODY&lt;/span&gt;" style="rounded=1;whiteSpace=wrap;html=1;" vertex="1" parent="1">
          <mxGeometry x="130" y="90" width="50" height="20" as="geometry" />
        </mxCell>
        <mxCell id="_pn34sJ178Xk1olBsKFP-9" style="edgeStyle=orthogonalEdgeStyle;rounded=0;orthogonalLoop=1;jettySize=auto;html=1;exitX=0.25;exitY=1;exitDx=0;exitDy=0;" edge="1" parent="1" source="_pn34sJ178Xk1olBsKFP-4" target="_pn34sJ178Xk1olBsKFP-35">
          <mxGeometry relative="1" as="geometry">
            <mxPoint x="215" y="640" as="targetPoint" />
          </mxGeometry>
        </mxCell>
        <mxCell id="_pn34sJ178Xk1olBsKFP-4" value="&lt;code style=&quot;color: purple; font-weight: bold; font-size: medium; text-align: left; background-color: rgb(255, 255, 255);&quot;&gt;DIV&lt;/code&gt;&lt;span style=&quot;font-family: monospace; font-size: medium; text-align: left; background-color: rgb(255, 255, 255);&quot;&gt;&amp;nbsp;&lt;/span&gt;&lt;span style=&quot;font-family: monospace; font-size: medium; text-align: left; background-color: rgb(255, 255, 255);&quot; class=&quot;t2&quot;&gt;&lt;code style=&quot;font-weight: bold;&quot; class=&quot;attribute name&quot;&gt;id&lt;/code&gt;=&quot;&lt;code style=&quot;color: blue;&quot; class=&quot;attribute value&quot;&gt;divExo2&lt;/code&gt;&quot;&lt;/span&gt;" style="rounded=1;whiteSpace=wrap;html=1;" vertex="1" parent="1">
          <mxGeometry x="180" y="130" width="140" height="20" as="geometry" />
        </mxCell>
        <mxCell id="_pn34sJ178Xk1olBsKFP-11" style="edgeStyle=orthogonalEdgeStyle;rounded=0;orthogonalLoop=1;jettySize=auto;html=1;exitX=0;exitY=0.5;exitDx=0;exitDy=0;" edge="1" parent="1" source="_pn34sJ178Xk1olBsKFP-10">
          <mxGeometry relative="1" as="geometry">
            <mxPoint x="220" y="190" as="targetPoint" />
            <Array as="points">
              <mxPoint x="220" y="190" />
              <mxPoint x="220" y="190" />
            </Array>
          </mxGeometry>
        </mxCell>
        <mxCell id="_pn34sJ178Xk1olBsKFP-15" style="edgeStyle=orthogonalEdgeStyle;rounded=0;orthogonalLoop=1;jettySize=auto;html=1;" edge="1" parent="1" source="_pn34sJ178Xk1olBsKFP-10">
          <mxGeometry relative="1" as="geometry">
            <mxPoint x="350" y="200" as="targetPoint" />
          </mxGeometry>
        </mxCell>
        <mxCell id="_pn34sJ178Xk1olBsKFP-10" value="&lt;span style=&quot;color: rgb(128, 0, 128); font-family: monospace; font-size: medium; font-weight: 700; text-align: left; background-color: rgb(255, 255, 255);&quot;&gt;H2&lt;/span&gt;" style="rounded=1;whiteSpace=wrap;html=1;" vertex="1" parent="1">
          <mxGeometry x="250" y="180" width="80" height="20" as="geometry" />
        </mxCell>
        <mxCell id="_pn34sJ178Xk1olBsKFP-13" value="&lt;code style=&quot;color: gray; font-weight: bold; font-size: medium; text-align: left; background-color: rgb(255, 255, 255);&quot;&gt;text&lt;/code&gt;&lt;span style=&quot;font-family: monospace; font-size: medium; text-align: left; background-color: rgb(255, 255, 255);&quot;&gt;:&amp;nbsp;&lt;/span&gt;&lt;span style=&quot;font-style: italic; font-family: serif; text-align: left; background-color: rgb(255, 255, 255);&quot;&gt;Languages base on ECMAScript&amp;nbsp;&lt;/span&gt;" style="rounded=1;whiteSpace=wrap;html=1;" vertex="1" parent="1">
          <mxGeometry x="310" y="210" width="230" height="20" as="geometry" />
        </mxCell>
        <mxCell id="_pn34sJ178Xk1olBsKFP-17" style="edgeStyle=orthogonalEdgeStyle;rounded=0;orthogonalLoop=1;jettySize=auto;html=1;exitX=0;exitY=0.5;exitDx=0;exitDy=0;" edge="1" parent="1" source="_pn34sJ178Xk1olBsKFP-16">
          <mxGeometry relative="1" as="geometry">
            <mxPoint x="220" y="260" as="targetPoint" />
          </mxGeometry>
        </mxCell>
        <mxCell id="_pn34sJ178Xk1olBsKFP-24" style="edgeStyle=orthogonalEdgeStyle;rounded=0;orthogonalLoop=1;jettySize=auto;html=1;exitX=1;exitY=0.5;exitDx=0;exitDy=0;entryX=1.078;entryY=0.517;entryDx=0;entryDy=0;entryPerimeter=0;" edge="1" parent="1" source="_pn34sJ178Xk1olBsKFP-16" target="_pn34sJ178Xk1olBsKFP-16">
          <mxGeometry relative="1" as="geometry" />
        </mxCell>
        <mxCell id="_pn34sJ178Xk1olBsKFP-27" style="edgeStyle=orthogonalEdgeStyle;rounded=0;orthogonalLoop=1;jettySize=auto;html=1;exitX=0;exitY=1;exitDx=0;exitDy=0;entryX=0;entryY=0.75;entryDx=0;entryDy=0;" edge="1" parent="1" source="_pn34sJ178Xk1olBsKFP-16" target="_pn34sJ178Xk1olBsKFP-22">
          <mxGeometry relative="1" as="geometry" />
        </mxCell>
        <mxCell id="_pn34sJ178Xk1olBsKFP-16" value="&lt;span style=&quot;color: rgb(128, 0, 128); font-family: monospace; font-size: medium; font-weight: 700; text-align: left; background-color: rgb(255, 255, 255);&quot;&gt;UL&lt;/span&gt;" style="rounded=1;whiteSpace=wrap;html=1;" vertex="1" parent="1">
          <mxGeometry x="250" y="250" width="40" height="20" as="geometry" />
        </mxCell>
        <mxCell id="_pn34sJ178Xk1olBsKFP-26" style="edgeStyle=orthogonalEdgeStyle;rounded=0;orthogonalLoop=1;jettySize=auto;html=1;exitX=0.5;exitY=1;exitDx=0;exitDy=0;entryX=0.024;entryY=0.5;entryDx=0;entryDy=0;entryPerimeter=0;" edge="1" parent="1" source="_pn34sJ178Xk1olBsKFP-18" target="_pn34sJ178Xk1olBsKFP-23">
          <mxGeometry relative="1" as="geometry" />
        </mxCell>
        <mxCell id="_pn34sJ178Xk1olBsKFP-28" style="edgeStyle=orthogonalEdgeStyle;rounded=0;orthogonalLoop=1;jettySize=auto;html=1;exitX=0;exitY=0.5;exitDx=0;exitDy=0;" edge="1" parent="1" source="_pn34sJ178Xk1olBsKFP-18">
          <mxGeometry relative="1" as="geometry">
            <mxPoint x="250" y="290.20000000000005" as="targetPoint" />
          </mxGeometry>
        </mxCell>
        <mxCell id="_pn34sJ178Xk1olBsKFP-18" value="&lt;ul style=&quot;margin: 0px; padding: 0px 0px 0px 1em; font-family: monospace; font-size: medium; text-align: left; background-color: rgb(255, 255, 255);&quot;&gt;&lt;li style=&quot;padding: 0px; margin: 0px; list-style: none; position: relative;&quot; class=&quot;t1&quot;&gt;&lt;span style=&quot;color: rgb(128, 0, 128); font-weight: 700;&quot;&gt;LI&amp;nbsp;&lt;/span&gt;&lt;br&gt;&lt;/li&gt;&lt;/ul&gt;" style="rounded=1;whiteSpace=wrap;html=1;" vertex="1" parent="1">
          <mxGeometry x="260" y="280" width="50" height="20" as="geometry" />
        </mxCell>
        <mxCell id="_pn34sJ178Xk1olBsKFP-29" style="edgeStyle=orthogonalEdgeStyle;rounded=0;orthogonalLoop=1;jettySize=auto;html=1;exitX=0;exitY=0.25;exitDx=0;exitDy=0;" edge="1" parent="1" source="_pn34sJ178Xk1olBsKFP-19">
          <mxGeometry relative="1" as="geometry">
            <mxPoint x="250" y="345" as="targetPoint" />
          </mxGeometry>
        </mxCell>
        <mxCell id="_pn34sJ178Xk1olBsKFP-33" style="edgeStyle=orthogonalEdgeStyle;rounded=0;orthogonalLoop=1;jettySize=auto;html=1;exitX=0.5;exitY=1;exitDx=0;exitDy=0;entryX=0;entryY=0.75;entryDx=0;entryDy=0;" edge="1" parent="1" source="_pn34sJ178Xk1olBsKFP-19" target="_pn34sJ178Xk1olBsKFP-32">
          <mxGeometry relative="1" as="geometry" />
        </mxCell>
        <mxCell id="_pn34sJ178Xk1olBsKFP-19" value="&lt;ul style=&quot;margin: 0px; padding: 0px 0px 0px 1em; font-family: monospace; font-size: medium; text-align: left; background-color: rgb(255, 255, 255);&quot;&gt;&lt;li style=&quot;padding: 0px; margin: 0px; list-style: none; position: relative;&quot; class=&quot;t1&quot;&gt;&lt;span style=&quot;color: rgb(128, 0, 128); font-weight: 700;&quot;&gt;LI&amp;nbsp;&lt;/span&gt;&lt;br&gt;&lt;/li&gt;&lt;/ul&gt;" style="rounded=1;whiteSpace=wrap;html=1;" vertex="1" parent="1">
          <mxGeometry x="260" y="340" width="50" height="20" as="geometry" />
        </mxCell>
        <mxCell id="_pn34sJ178Xk1olBsKFP-30" style="edgeStyle=orthogonalEdgeStyle;rounded=0;orthogonalLoop=1;jettySize=auto;html=1;exitX=0;exitY=0.5;exitDx=0;exitDy=0;" edge="1" parent="1" source="_pn34sJ178Xk1olBsKFP-20">
          <mxGeometry relative="1" as="geometry">
            <mxPoint x="250" y="410.20000000000005" as="targetPoint" />
          </mxGeometry>
        </mxCell>
        <mxCell id="_pn34sJ178Xk1olBsKFP-37" style="edgeStyle=orthogonalEdgeStyle;rounded=0;orthogonalLoop=1;jettySize=auto;html=1;exitX=0.5;exitY=1;exitDx=0;exitDy=0;entryX=0;entryY=1;entryDx=0;entryDy=0;" edge="1" parent="1" source="_pn34sJ178Xk1olBsKFP-20" target="_pn34sJ178Xk1olBsKFP-36">
          <mxGeometry relative="1" as="geometry" />
        </mxCell>
        <mxCell id="_pn34sJ178Xk1olBsKFP-20" value="&lt;ul style=&quot;margin: 0px; padding: 0px 0px 0px 1em; font-family: monospace; font-size: medium; text-align: left; background-color: rgb(255, 255, 255);&quot;&gt;&lt;li style=&quot;padding: 0px; margin: 0px; list-style: none; position: relative;&quot; class=&quot;t1&quot;&gt;&lt;span style=&quot;color: rgb(128, 0, 128); font-weight: 700;&quot;&gt;LI&amp;nbsp;&lt;/span&gt;&lt;br&gt;&lt;/li&gt;&lt;/ul&gt;" style="rounded=1;whiteSpace=wrap;html=1;" vertex="1" parent="1">
          <mxGeometry x="260" y="400" width="50" height="20" as="geometry" />
        </mxCell>
        <mxCell id="_pn34sJ178Xk1olBsKFP-31" style="edgeStyle=orthogonalEdgeStyle;rounded=0;orthogonalLoop=1;jettySize=auto;html=1;exitX=0;exitY=0.5;exitDx=0;exitDy=0;" edge="1" parent="1" source="_pn34sJ178Xk1olBsKFP-21">
          <mxGeometry relative="1" as="geometry">
            <mxPoint x="250" y="490.20000000000005" as="targetPoint" />
          </mxGeometry>
        </mxCell>
        <mxCell id="_pn34sJ178Xk1olBsKFP-39" style="edgeStyle=orthogonalEdgeStyle;rounded=0;orthogonalLoop=1;jettySize=auto;html=1;exitX=0.75;exitY=1;exitDx=0;exitDy=0;entryX=0.094;entryY=0;entryDx=0;entryDy=0;entryPerimeter=0;" edge="1" parent="1" source="_pn34sJ178Xk1olBsKFP-21" target="_pn34sJ178Xk1olBsKFP-38">
          <mxGeometry relative="1" as="geometry" />
        </mxCell>
        <mxCell id="_pn34sJ178Xk1olBsKFP-21" value="&lt;ul style=&quot;margin: 0px; padding: 0px 0px 0px 1em; font-family: monospace; font-size: medium; text-align: left; background-color: rgb(255, 255, 255);&quot;&gt;&lt;li style=&quot;padding: 0px; margin: 0px; list-style: none; position: relative;&quot; class=&quot;t1&quot;&gt;&lt;span style=&quot;color: rgb(128, 0, 128); font-weight: 700;&quot;&gt;LI&amp;nbsp;&lt;/span&gt;&lt;br&gt;&lt;/li&gt;&lt;/ul&gt;" style="rounded=1;whiteSpace=wrap;html=1;" vertex="1" parent="1">
          <mxGeometry x="260" y="480" width="50" height="20" as="geometry" />
        </mxCell>
        <mxCell id="_pn34sJ178Xk1olBsKFP-41" style="edgeStyle=orthogonalEdgeStyle;rounded=0;orthogonalLoop=1;jettySize=auto;html=1;exitX=0.75;exitY=1;exitDx=0;exitDy=0;entryX=0.231;entryY=-0.015;entryDx=0;entryDy=0;entryPerimeter=0;" edge="1" parent="1" source="_pn34sJ178Xk1olBsKFP-22" target="_pn34sJ178Xk1olBsKFP-40">
          <mxGeometry relative="1" as="geometry" />
        </mxCell>
        <mxCell id="_pn34sJ178Xk1olBsKFP-22" value="&lt;ul style=&quot;margin: 0px; padding: 0px 0px 0px 1em; font-family: monospace; font-size: medium; text-align: left; background-color: rgb(255, 255, 255);&quot;&gt;&lt;li style=&quot;padding: 0px; margin: 0px; list-style: none; position: relative;&quot; class=&quot;t1&quot;&gt;&lt;span style=&quot;color: rgb(128, 0, 128); font-weight: 700;&quot;&gt;LI&amp;nbsp;&lt;/span&gt;&lt;br&gt;&lt;/li&gt;&lt;/ul&gt;" style="rounded=1;whiteSpace=wrap;html=1;" vertex="1" parent="1">
          <mxGeometry x="270" y="540" width="50" height="20" as="geometry" />
        </mxCell>
        <mxCell id="_pn34sJ178Xk1olBsKFP-23" value="&lt;code style=&quot;color: purple; font-weight: bold; font-size: medium; text-align: left; background-color: rgb(255, 255, 255);&quot;&gt;SPAN&lt;/code&gt;&lt;span style=&quot;font-family: monospace; font-size: medium; text-align: left; background-color: rgb(255, 255, 255);&quot;&gt;&amp;nbsp;&lt;/span&gt;&lt;span style=&quot;font-family: monospace; font-size: medium; text-align: left; background-color: rgb(255, 255, 255);&quot; class=&quot;t2&quot;&gt;&lt;code style=&quot;font-weight: bold;&quot; class=&quot;attribute name&quot;&gt;class&lt;/code&gt;=&quot;&lt;code style=&quot;color: blue;&quot; class=&quot;attribute value&quot;&gt;prettyJavaScrip&lt;/code&gt;&quot;&lt;/span&gt;" style="rounded=1;whiteSpace=wrap;html=1;" vertex="1" parent="1">
          <mxGeometry x="315" y="310" width="210" height="20" as="geometry" />
        </mxCell>
        <mxCell id="_pn34sJ178Xk1olBsKFP-32" value="&lt;ul style=&quot;margin: 0px; padding: 0px 0px 0px 1em; font-family: monospace; font-size: medium; text-align: left; background-color: rgb(255, 255, 255);&quot;&gt;&lt;li style=&quot;padding: 0px; margin: 0px; list-style: none; position: relative;&quot; class=&quot;t3&quot;&gt;&lt;code style=&quot;color: gray; font-weight: bold;&quot;&gt;#text&lt;/code&gt;:&amp;nbsp;&lt;span style=&quot;font-style: italic; font-family: serif;&quot;&gt;JScript&lt;/span&gt;&lt;/li&gt;&lt;/ul&gt;" style="rounded=1;whiteSpace=wrap;html=1;" vertex="1" parent="1">
          <mxGeometry x="320" y="360" width="120" height="30" as="geometry" />
        </mxCell>
        <mxCell id="_pn34sJ178Xk1olBsKFP-43" style="edgeStyle=orthogonalEdgeStyle;rounded=0;orthogonalLoop=1;jettySize=auto;html=1;exitX=0.5;exitY=1;exitDx=0;exitDy=0;entryX=0.25;entryY=0;entryDx=0;entryDy=0;" edge="1" parent="1" source="_pn34sJ178Xk1olBsKFP-35" target="_pn34sJ178Xk1olBsKFP-42">
          <mxGeometry relative="1" as="geometry" />
        </mxCell>
        <mxCell id="_pn34sJ178Xk1olBsKFP-35" value="&lt;span style=&quot;color: rgb(128, 0, 128); font-family: monospace; font-size: medium; font-weight: 700; text-align: left; background-color: rgb(255, 255, 255);&quot;&gt;P&lt;/span&gt;" style="rounded=1;whiteSpace=wrap;html=1;" vertex="1" parent="1">
          <mxGeometry x="210" y="610" width="30" height="20" as="geometry" />
        </mxCell>
        <mxCell id="_pn34sJ178Xk1olBsKFP-36" value="&lt;ul style=&quot;margin: 0px; padding: 0px 0px 0px 1em; font-family: monospace; font-size: medium; text-align: left; background-color: rgb(255, 255, 255);&quot;&gt;&lt;li style=&quot;padding: 0px; margin: 0px; list-style: none; position: relative;&quot; class=&quot;t3&quot;&gt;&lt;code style=&quot;color: gray; font-weight: bold;&quot;&gt;#text&lt;/code&gt;:&amp;nbsp;&lt;span style=&quot;font-style: italic; font-family: serif;&quot;&gt;ActionScript&lt;/span&gt;&lt;/li&gt;&lt;/ul&gt;" style="rounded=1;whiteSpace=wrap;html=1;" vertex="1" parent="1">
          <mxGeometry x="315" y="420" width="175" height="30" as="geometry" />
        </mxCell>
        <mxCell id="_pn34sJ178Xk1olBsKFP-38" value="&lt;ul style=&quot;margin: 0px; padding: 0px 0px 0px 1em; font-family: monospace; font-size: medium; text-align: left; background-color: rgb(255, 255, 255);&quot;&gt;&lt;li style=&quot;padding: 0px; margin: 0px; list-style: none; position: relative;&quot; class=&quot;t3&quot;&gt;&lt;code style=&quot;color: gray; font-weight: bold;&quot;&gt;#text&lt;/code&gt;:&amp;nbsp;&lt;span style=&quot;font-style: italic; font-family: serif;&quot;&gt;MushuScript&lt;/span&gt;&lt;/li&gt;&lt;/ul&gt;" style="rounded=1;whiteSpace=wrap;html=1;" vertex="1" parent="1">
          <mxGeometry x="315" y="510" width="160" height="20" as="geometry" />
        </mxCell>
        <mxCell id="_pn34sJ178Xk1olBsKFP-40" value="&lt;ul style=&quot;margin: 0px; padding: 0px 0px 0px 1em; font-family: monospace; font-size: medium; text-align: left; background-color: rgb(255, 255, 255);&quot;&gt;&lt;li style=&quot;padding: 0px; margin: 0px; list-style: none; position: relative;&quot; class=&quot;t3&quot;&gt;&lt;code style=&quot;color: gray; font-weight: bold;&quot;&gt;#text&lt;/code&gt;:&amp;nbsp;&lt;span style=&quot;font-style: italic; font-family: serif;&quot;&gt;EX4&lt;/span&gt;&lt;/li&gt;&lt;/ul&gt;" style="rounded=1;whiteSpace=wrap;html=1;" vertex="1" parent="1">
          <mxGeometry x="320" y="575" width="100" height="25" as="geometry" />
        </mxCell>
        <mxCell id="_pn34sJ178Xk1olBsKFP-46" style="edgeStyle=orthogonalEdgeStyle;rounded=0;orthogonalLoop=1;jettySize=auto;html=1;exitX=0.5;exitY=1;exitDx=0;exitDy=0;entryX=0.045;entryY=-0.012;entryDx=0;entryDy=0;entryPerimeter=0;" edge="1" parent="1" source="_pn34sJ178Xk1olBsKFP-42" target="_pn34sJ178Xk1olBsKFP-45">
          <mxGeometry relative="1" as="geometry" />
        </mxCell>
        <mxCell id="_pn34sJ178Xk1olBsKFP-42" value="&lt;span style=&quot;color: rgb(128, 0, 128); font-family: monospace; font-size: medium; font-weight: 700; text-align: left; background-color: rgb(255, 255, 255);&quot;&gt;I&lt;/span&gt;" style="rounded=1;whiteSpace=wrap;html=1;" vertex="1" parent="1">
          <mxGeometry x="240" y="640" width="40" height="20" as="geometry" />
        </mxCell>
        <mxCell id="_pn34sJ178Xk1olBsKFP-45" value="&lt;ul style=&quot;margin: 0px; padding: 0px 0px 0px 1em; font-family: monospace; font-size: medium; text-align: left; background-color: rgb(255, 255, 255);&quot;&gt;&lt;li style=&quot;padding: 0px; margin: 0px; list-style: none; position: relative;&quot; class=&quot;t3&quot;&gt;&lt;code style=&quot;color: gray; font-weight: bold;&quot;&gt;#text&lt;/code&gt;:&amp;nbsp;&lt;span style=&quot;font-style: italic; font-family: serif;&quot;&gt;Other languages to come!&lt;/span&gt;&lt;/li&gt;&lt;/ul&gt;" style="rounded=1;whiteSpace=wrap;html=1;" vertex="1" parent="1">
          <mxGeometry x="280" y="670" width="260" height="30" as="geometry" />
        </mxCell>
      </root>
    </mxGraphModel>
  </diagram>
</mxfile>
